HIERARCHY
ROOT Hips
{
	OFFSET 0.00000 0.00000 0.00000
	CHANNELS 6 Xposition Yposition Zposition Zrotation Yrotation Xrotation 
	JOINT LHipJoint
	{
		OFFSET 0 0 0
		CHANNELS 3 Zrotation Yrotation Xrotation
		JOINT LeftUpLeg
		{
			OFFSET 1.54859 -1.61379 0.86856
			CHANNELS 3 Zrotation Yrotation Xrotation
			JOINT LeftLeg
			{
				OFFSET 2.25087 -6.18423 0.00000
				CHANNELS 3 Zrotation Yrotation Xrotation
				JOINT LeftFoot
				{
					OFFSET 2.40328 -6.60297 0.00000
					CHANNELS 3 Zrotation Yrotation Xrotation
					JOINT LeftToeBase
					{
						OFFSET 0.17435 -0.47901 2.02453
						CHANNELS 3 Zrotation Yrotation Xrotation
						End Site
						{
							OFFSET 0.00000 -0.00000 1.04844
						}
					}
				}
			}
		}
	}
	JOINT RHipJoint
	{
		OFFSET 0 0 0
		CHANNELS 3 Zrotation Yrotation Xrotation
		JOINT RightUpLeg
		{
			OFFSET -1.54669 -1.61379 0.86856
			CHANNELS 3 Zrotation Yrotation Xrotation
			JOINT RightLeg
			{
				OFFSET -2.28132 -6.26789 0.00000
				CHANNELS 3 Zrotation Yrotation Xrotation
				JOINT RightFoot
				{
					OFFSET -2.51636 -6.91365 0.00000
					CHANNELS 3 Zrotation Yrotation Xrotation
					JOINT RightToeBase
					{
						OFFSET -0.15124 -0.41552 2.21090
						CHANNELS 3 Zrotation Yrotation Xrotation
						End Site
						{
							OFFSET -0.00000 -0.00000 1.13399
						}
					}
				}
			}
		}
	}
	JOINT LowerBack
	{
		OFFSET 0 0 0
		CHANNELS 3 Zrotation Yrotation Xrotation
		JOINT Spine
		{
			OFFSET -0.04287 2.26161 -0.25690
			CHANNELS 3 Zrotation Yrotation Xrotation
			JOINT Spine1
			{
				OFFSET 0.02248 2.28395 -0.10140
				CHANNELS 3 Zrotation Yrotation Xrotation
				JOINT Neck
				{
					OFFSET 0 0 0
					CHANNELS 3 Zrotation Yrotation Xrotation
					JOINT Neck1
					{
						OFFSET -0.11644 1.38496 0.11345
						CHANNELS 3 Zrotation Yrotation Xrotation
						JOINT Head
						{
							OFFSET 0.29383 1.36600 0.06642
							CHANNELS 3 Zrotation Yrotation Xrotation
							End Site
							{
								OFFSET 0.11075 1.41395 -0.00294
							}
						}
					}
				}
				JOINT LeftShoulder
				{
					OFFSET 0 0 0
					CHANNELS 3 Zrotation Yrotation Xrotation
					JOINT LeftArm
					{
						OFFSET 3.51628 0.59542 -0.30346
						CHANNELS 3 Zrotation Yrotation Xrotation
						JOINT LeftForeArm
						{
							OFFSET 4.76405 -0.00000 0.00000
							CHANNELS 3 Zrotation Yrotation Xrotation
							JOINT LeftHand
							{
								OFFSET 3.13759 -0.00000 -0.00000
								CHANNELS 3 Zrotation Yrotation Xrotation
								JOINT LeftFingerBase
								{
									OFFSET 0 0 0
									CHANNELS 3 Zrotation Yrotation Xrotation
									JOINT LeftHandIndex1
									{
										OFFSET 0.73226 -0.00000 -0.00000
										CHANNELS 3 Zrotation Yrotation Xrotation
										End Site
										{
											OFFSET 0.59037 -0.00000 -0.00000
										}
									}
								}
								JOINT LThumb
								{
									OFFSET 0 0 0
									CHANNELS 3 Zrotation Yrotation Xrotation
									End Site
									{
										OFFSET 0.59938 -0.00000 0.59938
									}
								}
							}
						}
					}
				}
				JOINT RightShoulder
				{
					OFFSET 0 0 0
					CHANNELS 3 Zrotation Yrotation Xrotation
					JOINT RightArm
					{
						OFFSET -3.30990 0.84213 -0.36430
						CHANNELS 3 Zrotation Yrotation Xrotation
						JOINT RightForeArm
						{
							OFFSET -5.10161 -0.00000 -0.00000
							CHANNELS 3 Zrotation Yrotation Xrotation
							JOINT RightHand
							{
								OFFSET -3.23267 -0.00000 -0.00000
								CHANNELS 3 Zrotation Yrotation Xrotation
								JOINT RightFingerBase
								{
									OFFSET 0 0 0
									CHANNELS 3 Zrotation Yrotation Xrotation
									JOINT RightHandIndex1
									{
										OFFSET -0.70200 -0.00000 -0.00000
										CHANNELS 3 Zrotation Yrotation Xrotation
										End Site
										{
											OFFSET -0.56597 -0.00000 -0.00000
										}
									}
								}
								JOINT RThumb
								{
									OFFSET 0 0 0
									CHANNELS 3 Zrotation Yrotation Xrotation
									End Site
									{
										OFFSET -0.57461 -0.00000 0.57461
									}
								}
							}
						}
					}
				}
			}
		}
	}
}
MOTION
Frames: 7
Frame Time: .0083333
-18.8733 13.5171 8.6039 351.0150 67.2822 408.7280 0.0000 0.0000 0.0000 -24.9956 -17.1936 -114.7790 22.1091 19.8930 96.1773 0.0568 -2.2413 -4.2773 1.2241 -7.0174 -19.7669 0.0000 0.0000 0.0000 13.5347 -8.0207 -65.3588 -9.2639 -16.9746 56.9983 -2.4807 3.3346 -28.9874 -6.2735 14.6882 -46.0696 2.6082 4.5389 -12.4751 -0.0646 5.6997 0.7418 -0.4245 2.8930 8.0463 -10.2874 -2.5133 -5.7659 13.1301 -0.0246 -24.5616 6.0744 0.4218 -6.3451 0.0000 -0.0000 0.0000 -78.0257 28.3253 36.4221 13.5039 -22.0211 -2.6392 -0.0000 0.0000 -13.2416 21.1576 33.7709 12.1413 -7.1250 0.0000 -0.0000 -14.8409 65.0421 -7.2671 0.0000 -0.0000 0.0000 75.6229 34.0473 4.2429 -35.1280 44.9033 -14.9036 0.0000 -0.0000 -21.6226 -27.7624 32.3485 -15.7304 7.1250 -0.0000 -0.0000 2.3266 5.5872 2.5441
-18.4571 13.5843 8.7910 350.0740 68.0348 407.5380 0.0000 0.0000 0.0000 -26.0396 -17.6140 -114.8005 20.5182 19.9936 91.5151 0.0062 -4.1175 -3.1308 1.1326 -6.7593 -19.0042 0.0000 0.0000 0.0000 13.7615 -7.7995 -60.9611 -8.2480 -16.2986 53.4510 -2.1775 3.2761 -27.0976 -6.3763 14.7833 -46.4738 0.5050 3.7200 -12.2521 0.9974 4.8495 0.6724 1.6717 2.3772 7.5371 -10.9749 -2.0681 -5.3413 13.1957 0.5480 -24.4868 6.2085 0.7362 -6.4655 0.0000 -0.0000 0.0000 -80.7127 30.3234 34.0565 13.2000 -21.5796 -2.5264 -0.0000 0.0000 -12.3452 19.9535 33.3878 11.2983 -7.1250 0.0000 -0.0000 -15.9115 64.3415 -7.5448 0.0000 -0.0000 0.0000 76.0974 30.9835 5.8719 -39.5266 47.7869 -18.0878 0.0000 -0.0000 -27.3176 -29.3076 34.6014 -17.6807 7.1250 -0.0000 -0.0000 1.9353 8.3501 2.1970
-18.0279 13.6637 8.9779 349.4350 68.6524 406.7960 0.0000 0.0000 0.0000 -27.7180 -18.0692 -114.4161 18.8169 19.9664 86.5389 -0.0642 -6.0981 -2.1726 0.9516 -6.2121 -17.4012 0.0000 0.0000 0.0000 13.6221 -7.2381 -56.5791 -7.2409 -15.5315 49.7797 -1.8034 3.2128 -24.5793 -6.5752 14.9635 -47.2487 -1.6339 2.9078 -12.2579 1.8478 4.0225 0.5727 3.6108 1.8833 7.2378 -11.2158 -1.0031 -5.8388 11.8447 1.6296 -22.6228 5.6966 1.3502 -5.9500 -0.0000 0.0000 0.0000 -83.3760 31.9663 31.2871 12.9066 -21.1502 -2.4195 -0.0000 0.0000 -11.5606 19.2830 33.1073 10.8187 -7.1250 0.0000 -0.0000 -16.4387 63.8919 -7.6290 -0.0000 0.0000 0.0000 77.1003 28.1776 6.3949 -43.5039 50.0141 -21.0861 0.0000 -0.0000 -29.8455 -30.8627 35.3788 -19.0856 7.1250 -0.0000 -0.0000 1.2748 9.6107 1.4701
-17.5894 13.7347 9.1628 348.9980 69.2169 406.0890 0.0000 0.0000 0.0000 -29.7500 -18.4785 -113.5131 17.0983 19.7969 81.4883 -0.1519 -7.9647 -1.3469 0.6821 -5.2807 -14.7108 0.0000 0.0000 0.0000 13.3251 -6.5996 -52.0271 -6.2737 -14.6884 46.0704 -1.4109 3.1062 -21.6563 -6.8520 15.2060 -48.3123 -2.5920 2.3485 -12.0811 1.5950 3.4221 0.4564 3.7608 1.5631 7.0149 -10.6692 -0.6299 -5.3568 12.5628 2.2843 -22.8801 5.8313 1.5753 -6.1820 0.0000 0.0000 0.0000 -84.1455 33.2461 29.2725 12.6828 -20.8206 -2.3393 -0.0000 0.0000 -11.5565 19.0395 32.9289 10.6249 -7.1250 0.0000 -0.0000 -16.5621 63.6564 -7.5967 0.0000 0.0000 0.0000 79.9440 25.2489 5.7784 -46.9908 51.7073 -23.7912 0.0000 -0.0000 -28.4835 -30.1691 34.4715 -18.2117 7.1250 -0.0000 -0.0000 1.4424 8.4630 1.6394
-17.1503 13.8063 9.3404 348.0570 69.8912 404.5030 0.0000 0.0000 0.0000 -31.8495 -18.6280 -112.1178 15.4234 19.4902 76.5088 -0.2468 -9.5692 -0.5844 0.6631 -5.2081 -14.5030 0.0000 0.0000 0.0000 13.1945 -5.8013 -46.9575 -5.3393 -13.7559 42.2685 -0.9947 2.7223 -18.1329 -7.1669 15.4709 -49.5029 -3.6473 1.7749 -11.6984 1.7234 2.7805 0.6538 4.3715 1.2020 7.0058 -10.3898 -0.2021 -5.4689 12.6373 2.8845 -22.5235 5.7766 1.8458 -6.1220 0.0000 0.0000 0.0000 -85.8233 33.4899 26.3304 12.1441 -20.0204 -2.1514 -0.0000 0.0000 -11.0164 19.1100 32.6720 10.5941 -7.1250 0.0000 -0.0000 -16.2621 63.4296 -7.3692 0.0000 0.0000 0.0000 82.1235 22.5793 5.3540 -50.7487 53.2930 -26.7732 0.0000 -0.0000 -28.3603 -30.5085 32.9042 -17.7498 7.1250 -0.0000 -0.0000 0.9196 6.9228 1.0239
-16.7152 13.8786 9.5059 346.1750 70.6736 401.3820 0.0000 0.0000 0.0000 -33.7358 -18.3132 -110.1366 13.8755 19.0758 71.8239 -0.2683 -9.3635 1.2530 0.0126 -0.7247 -1.9917 0.0000 0.0000 0.0000 13.3427 -4.8706 -41.2335 -4.4850 -12.7793 38.5477 -0.5753 2.0120 -13.7789 -7.4381 15.6900 -50.5125 -3.6641 1.4489 -10.6439 1.3903 2.3268 1.0739 3.9164 0.9765 6.9129 -9.6089 0.1436 -6.0147 12.8527 3.3291 -21.3642 5.6690 2.0037 -5.7064 0.0000 0.0000 0.0000 -86.3804 33.1866 23.7947 11.6634 -19.2979 -1.9896 -0.0000 0.0000 -10.8367 18.9815 32.7165 10.5315 -7.1250 0.0000 -0.0000 -16.4462 63.4381 -7.4581 0.0000 0.0000 0.0000 85.0762 20.2126 4.4906 -53.6786 54.3755 -29.1389 0.0000 -0.0000 -27.4935 -29.5876 31.6055 -16.5710 7.1250 -0.0000 -0.0000 1.1643 5.2972 1.2671
-16.2765 13.9496 9.6678 343.5590 71.5237 397.3520 0.0000 0.0000 0.0000 -35.1568 -17.7621 -107.8232 12.4852 18.5883 67.5188 -0.4021 -11.7837 0.2762 0.9661 -6.2580 -17.5349 0.0000 0.0000 0.0000 13.7915 -3.8047 -35.4926 -3.7462 -11.8148 35.0801 -0.2283 0.8682 -8.7601 -7.6190 15.8317 -51.1783 -3.3943 1.2551 -9.2929 1.0362 2.0089 1.4914 3.2988 0.8363 6.6370 -8.5688 -0.6950 -3.6268 13.5043 2.2494 -23.1843 5.7896 1.2475 -6.5483 -0.0000 -0.0000 0.0000 -86.4869 32.6471 21.8967 11.2439 -18.6612 -1.8532 -0.0000 0.0000 -10.7981 18.9072 32.9586 10.5555 -7.1250 0.0000 -0.0000 -16.7388 63.6495 -7.6774 -0.0000 -0.0000 0.0000 87.8803 17.8839 3.7816 -57.0257 55.4638 -31.8783 0.0000 -0.0000 -31.8002 -27.5570 31.0496 -15.0642 7.1250 -0.0000 -0.0000 2.2010 4.1773 2.3572
